<svg width="92" height="138" xmlns="http://www.w3.org/2000/svg">
 <g id="Layer_1">
  <rect stroke="#dbdbdb" stroke-width="0" id="svg_3" height="138" width="91.76191" y="-0.1905" x="0.04764" stroke-opacity="0" fill="#dbdbdb"/>
  <g stroke="null">
   <path stroke="null" d="m64.34524,52.28572l-36.69047,0a2.39298,2.31181 0 0 0 -2.39286,2.31169l0,29.28138a2.39298,2.31181 0 0 0 2.39286,2.31169l36.69047,0a2.39298,2.31181 0 0 0 2.39286,-2.31169l0,-29.28138a2.39298,2.31181 0 0 0 -2.39286,-2.31169zm-2.39286,20.80519l-7.64797,-8.06024a1.5854,1.53162 0 0 0 -2.30397,-0.04835l-8.53039,8.24103l8.63671,8.34375l-4.51152,0l-7.64583,-7.38661a1.59559,1.54146 0 0 0 -2.25595,0l-7.64583,7.38661l0,-24.65801l31.90476,0l0,16.18182zm-28.55476,-9.24675a3.82857,3.6987 0 1 1 3.82857,3.6987a3.82865,3.69878 0 0 1 -3.82857,-3.6987z" id="svg_2" fill="#b5b5b5"/>
  </g>
 </g>
</svg>